<svg id="visual" viewBox="0 0 900 900" preserveAspectRatio="none" xmlns="http://www.w3.org/2000/svg" xmlns:xlink="http://www.w3.org/1999/xlink" version="1.1"><path d="M0 91L15 85C30 79 60 67 90 71.5C120 76 150 97 180 100C210 103 240 88 270 83.5C300 79 330 85 360 88C390 91 420 91 450 94C480 97 510 103 540 100C570 97 600 85 630 83.5C660 82 690 91 720 97C750 103 780 106 810 106C840 106 870 103 885 101.5L900 100L900 0L885 0C870 0 840 0 810 0C780 0 750 0 720 0C690 0 660 0 630 0C600 0 570 0 540 0C510 0 480 0 450 0C420 0 390 0 360 0C330 0 300 0 270 0C240 0 210 0 180 0C150 0 120 0 90 0C60 0 30 0 15 0L0 0Z" fill="#f55858"></path><path d="M0 217L15 218.5C30 220 60 223 90 235C120 247 150 268 180 262C210 256 240 223 270 230.5C300 238 330 286 360 302.5C390 319 420 304 450 299.5C480 295 510 301 540 295C570 289 600 271 630 256C660 241 690 229 720 236.5C750 244 780 271 810 283C840 295 870 292 885 290.5L900 289L900 98L885 99.5C870 101 840 104 810 104C780 104 750 101 720 95C690 89 660 80 630 81.5C600 83 570 95 540 98C510 101 480 95 450 92C420 89 390 89 360 86C330 83 300 77 270 81.5C240 86 210 101 180 98C150 95 120 74 90 69.5C60 65 30 77 15 83L0 89Z" fill="#ed475e"></path><path d="M0 280L15 280C30 280 60 280 90 292C120 304 150 328 180 317.5C210 307 240 262 270 263.5C300 265 330 313 360 334C390 355 420 349 450 347.5C480 346 510 349 540 340C570 331 600 310 630 292C660 274 690 259 720 268C750 277 780 310 810 322C840 334 870 325 885 320.5L900 316L900 287L885 288.5C870 290 840 293 810 281C780 269 750 242 720 234.5C690 227 660 239 630 254C600 269 570 287 540 293C510 299 480 293 450 297.5C420 302 390 317 360 300.5C330 284 300 236 270 228.5C240 221 210 254 180 260C150 266 120 245 90 233C60 221 30 218 15 216.5L0 215Z" fill="#e33764"></path><path d="M0 325L15 323.5C30 322 60 319 90 329.5C120 340 150 364 180 355C210 346 240 304 270 310C300 316 330 370 360 395.5C390 421 420 418 450 418C480 418 510 421 540 406C570 391 600 358 630 341.5C660 325 690 325 720 340C750 355 780 385 810 394C840 403 870 391 885 385L900 379L900 314L885 318.5C870 323 840 332 810 320C780 308 750 275 720 266C690 257 660 272 630 290C600 308 570 329 540 338C510 347 480 344 450 345.5C420 347 390 353 360 332C330 311 300 263 270 261.5C240 260 210 305 180 315.5C150 326 120 302 90 290C60 278 30 278 15 278L0 278Z" fill="#d7266a"></path><path d="M0 577L15 575.5C30 574 60 571 90 566.5C120 562 150 556 180 548.5C210 541 240 532 270 539.5C300 547 330 571 360 578.5C390 586 420 577 450 568C480 559 510 550 540 539.5C570 529 600 517 630 515.5C660 514 690 523 720 526C750 529 780 526 810 524.5C840 523 870 523 885 523L900 523L900 377L885 383C870 389 840 401 810 392C780 383 750 353 720 338C690 323 660 323 630 339.5C600 356 570 389 540 404C510 419 480 416 450 416C420 416 390 419 360 393.5C330 368 300 314 270 308C240 302 210 344 180 353C150 362 120 338 90 327.5C60 317 30 320 15 321.5L0 323Z" fill="#c91470"></path><path d="M0 631L15 626.5C30 622 60 613 90 605.5C120 598 150 592 180 587.5C210 583 240 580 270 586C300 592 330 607 360 610C390 613 420 604 450 598C480 592 510 589 540 580C570 571 600 556 630 554.5C660 553 690 565 720 569.5C750 574 780 571 810 571C840 571 870 574 885 575.5L900 577L900 521L885 521C870 521 840 521 810 522.5C780 524 750 527 720 524C690 521 660 512 630 513.5C600 515 570 527 540 537.5C510 548 480 557 450 566C420 575 390 584 360 576.5C330 569 300 545 270 537.5C240 530 210 539 180 546.5C150 554 120 560 90 564.5C60 569 30 572 15 573.5L0 575Z" fill="#b90076"></path><path d="M0 721L15 710.5C30 700 60 679 90 667C120 655 150 652 180 652C210 652 240 655 270 662.5C300 670 330 682 360 679C390 676 420 658 450 646C480 634 510 628 540 620.5C570 613 600 604 630 604C660 604 690 613 720 623.5C750 634 780 646 810 653.5C840 661 870 664 885 665.5L900 667L900 575L885 573.5C870 572 840 569 810 569C780 569 750 572 720 567.5C690 563 660 551 630 552.5C600 554 570 569 540 578C510 587 480 590 450 596C420 602 390 611 360 608C330 605 300 590 270 584C240 578 210 581 180 585.5C150 590 120 596 90 603.5C60 611 30 620 15 624.5L0 629Z" fill="#a7007c"></path><path d="M0 784L15 776.5C30 769 60 754 90 749.5C120 745 150 751 180 754C210 757 240 757 270 760C300 763 330 769 360 770.5C390 772 420 769 450 764.5C480 760 510 754 540 749.5C570 745 600 742 630 745C660 748 690 757 720 761.5C750 766 780 766 810 763C840 760 870 754 885 751L900 748L900 665L885 663.5C870 662 840 659 810 651.5C780 644 750 632 720 621.5C690 611 660 602 630 602C600 602 570 611 540 618.5C510 626 480 632 450 644C420 656 390 674 360 677C330 680 300 668 270 660.5C240 653 210 650 180 650C150 650 120 653 90 665C60 677 30 698 15 708.5L0 719Z" fill="#900083"></path><path d="M0 820L15 814C30 808 60 796 90 791.5C120 787 150 790 180 794.5C210 799 240 805 270 808C300 811 330 811 360 812.5C390 814 420 817 450 811C480 805 510 790 540 785.5C570 781 600 787 630 794.5C660 802 690 811 720 811C750 811 780 802 810 796C840 790 870 787 885 785.5L900 784L900 746L885 749C870 752 840 758 810 761C780 764 750 764 720 759.5C690 755 660 746 630 743C600 740 570 743 540 747.5C510 752 480 758 450 762.5C420 767 390 770 360 768.5C330 767 300 761 270 758C240 755 210 755 180 752C150 749 120 743 90 747.5C60 752 30 767 15 774.5L0 782Z" fill="#750089"></path><path d="M0 865L15 863.5C30 862 60 859 90 856C120 853 150 850 180 851.5C210 853 240 859 270 860.5C300 862 330 859 360 856C390 853 420 850 450 848.5C480 847 510 847 540 848.5C570 850 600 853 630 856C660 859 690 862 720 860.5C750 859 780 853 810 851.5C840 850 870 853 885 854.5L900 856L900 782L885 783.5C870 785 840 788 810 794C780 800 750 809 720 809C690 809 660 800 630 792.5C600 785 570 779 540 783.5C510 788 480 803 450 809C420 815 390 812 360 810.5C330 809 300 809 270 806C240 803 210 797 180 792.5C150 788 120 785 90 789.5C60 794 30 806 15 812L0 818Z" fill="#510090"></path><path d="M0 901L15 901C30 901 60 901 90 901C120 901 150 901 180 901C210 901 240 901 270 901C300 901 330 901 360 901C390 901 420 901 450 901C480 901 510 901 540 901C570 901 600 901 630 901C660 901 690 901 720 901C750 901 780 901 810 901C840 901 870 901 885 901L900 901L900 854L885 852.5C870 851 840 848 810 849.5C780 851 750 857 720 858.5C690 860 660 857 630 854C600 851 570 848 540 846.5C510 845 480 845 450 846.5C420 848 390 851 360 854C330 857 300 860 270 858.5C240 857 210 851 180 849.5C150 848 120 851 90 854C60 857 30 860 15 861.5L0 863Z" fill="#000095"></path></svg>